<?xml version="1.0" encoding="utf-8"?>
<!-- Generator: Adobe Illustrator 25.0.0, SVG Export Plug-In . SVG Version: 6.00 Build 0)  -->
<svg version="1.1" id="Layer_1" xmlns="http://www.w3.org/2000/svg" xmlns:xlink="http://www.w3.org/1999/xlink" x="0px" y="0px"
	 viewBox="0 0 100 112.2" style="enable-background:new 0 0 100 112.2;" xml:space="preserve">
<g id="admin">
	<path id="body" d="M50,81.9c7.4,0,14.8-0.1,22.2,0c11.6,0.3,20.1,5.8,25.3,16.2c1.8,3.6,2.5,7.4,2.5,11.3c0,1.5-1,2.6-2.4,2.7
		c-1.4,0-2.4-1-2.5-2.6c-0.5-9.7-5.1-16.7-13.9-20.9c-2.8-1.3-5.7-1.8-8.8-1.8c-14.9,0-29.9,0-44.8,0c-11.2,0-21,8.6-22.4,19.7
		c-0.1,1-0.2,2-0.2,3.1c-0.1,1.5-1.1,2.6-2.5,2.6C1,112.1,0,111,0,109.4c0.2-7.3,2.7-13.7,7.8-19c5.6-5.8,12.4-8.6,20.5-8.6
		C35.5,81.8,42.7,81.9,50,81.9z"/>
	<path id="face" d="M80,32.3c0.2-0.3,0.3-0.7,0.3-1.1V2.5c0-1-0.6-1.9-1.5-2.3c-0.9-0.4-2-0.2-2.7,0.5L63.2,13.2L52.4,0.9
		C52,0.3,51.3,0,50.7,0c-0.7,0-1.4,0.2-1.8,0.7L35.9,13.3L24.1,0.8c-0.7-0.7-1.8-1-2.7-0.6c-1,0.4-1.6,1.3-1.6,2.3v28.6
		c0,0.4,0.1,0.8,0.3,1.1c-1.4,3.6-2.2,7.5-2.2,11.6c0,17.7,14.4,32.3,31.9,32.3c18,0,32.5-14.3,32.5-32.2
		C82.2,39.9,81.4,35.9,80,32.3z M24.7,24.4V8.8l9.3,9.8c0.5,0.5,1.1,0.8,1.8,0.8c0.7,0,1.3-0.2,1.8-0.7L50.4,6.1l10.8,12.3
		c0.5,0.5,1.1,0.8,1.8,0.9c0.7,0,1.4-0.2,1.8-0.7L75.3,8.4v16.3v3.9h-2.8H27.5h-2.8V24.4z M49.8,71.3c-14.9,0-27.1-12.4-27.1-27.3
		c0-3.7,0.7-7.2,2.1-10.4h50.4c1.3,3.2,2.1,6.7,2,10.4C77.2,59.1,65,71.3,49.8,71.3z"/>
</g>
</svg>
