<?xml version="1.0" encoding="utf-8"?>
<!-- Generator: Adobe Illustrator 25.0.0, SVG Export Plug-In . SVG Version: 6.00 Build 0)  -->
<svg version="1.1" id="Layer_1" xmlns="http://www.w3.org/2000/svg" xmlns:xlink="http://www.w3.org/1999/xlink" x="0px" y="0px"
	 viewBox="0 0 50 50" style="enable-background:new 0 0 50 50;" xml:space="preserve">
<path d="M4.2,50c-1.2,0-2.1-0.4-3-1.2C0.4,48,0,47,0,45.8V4.2C0,3,0.4,2,1.2,1.2S3,0,4.2,0h41.7c1.2,0,2.1,0.4,3,1.2
	C49.6,2,50,3,50,4.2v41.7c0,1.2-0.4,2.1-1.2,3C48,49.6,47,50,45.8,50H4.2z M4.2,45.8h41.7V9.7H4.2V45.8z M11.1,24.3v-4.2h27.1v4.2
	H11.1z M11.1,35.4v-4.2h16v4.2H11.1z"/>
</svg>
