<?xml version="1.0" encoding="utf-8"?>
<svg version="1.1" id="Layer_1" xmlns="http://www.w3.org/2000/svg" xmlns:xlink="http://www.w3.org/1999/xlink" x="0px" y="0px"
	 viewBox="0 0 600 555.3" style="enable-background:new 0 0 600 555.3;" xml:space="preserve">
<g>
	<path d="M433.4,391.9c4.6-0.6,8.7-1.2,12.8-1.7c-1.4-12.8-3.8-50.5-10.7-62.7c7.3,1.3,14,2.2,20.5,3.6c22,4.7,43.3,11.9,63.8,21.2
		c9.6,4.3,14.3,11.6,15,22.1c1.9,28.9,0.3,57.6-7.8,85.5c-1.9,6.6-4.3,13-7,19.3c-3.6,8.4-10.3,13.5-19.3,13.4
		c-16.4-0.3-32.8-1.6-49-2.4c1.4-6.7,4.1-12.9,3.8-19.1c-0.7-16-2.7-31.9-4.2-48.3c-5,0.6-9.2,1.2-13.8,1.7c1.1,8.7,2.3,17,3.1,25.4
		c0.7,7.4,2,14.9,1.3,22.2c-1.6,16.5-13.4,29.4-29.6,32.8c-27.3,5.8-54.6,11.4-82,16.7c-20.8,4-39.1-7.5-45-27.9
		c-8.1-28-16.2-56.1-24.1-84.2c-3.1-10.9-6.8-21.7-8.5-32.8c-2.7-17.8,7.3-34.5,23.7-41.8c26.4-11.6,54.1-18.6,82.8-21.4
		c10.8-1,21.8-1.9,32.6-1c19.7,1.6,34.2,17.1,36.4,36.9C429.7,363.5,431.6,377.4,433.4,391.9z M337.9,346.5
		c-26.3-1.8-54.4,21.5-54.5,45c4.1,0.5,8.3,1,12.6,1.5c5.5-22.3,20.2-32.7,41.9-33.7C337.9,354.7,337.9,350.7,337.9,346.5z"/>
	<path d="M359.8,222.4c-9.5,8.4-21.1,10.3-32.6,13.9c0.9,4.1,1.9,8.2,3,13.2c9.6-3.1,18.9-6.2,28.8-9.4c-1.4,11.9-2.7,23.7-4.3,35.5
		c-1,7.4-2.7,14.6-3.9,22c-0.4,2.7-1.5,3.7-4.3,4.1c-24.8,3.4-48.7,9.9-71.9,19.4c-13.1,5.4-23.2,13.9-29.8,26.6
		c-0.7,1.4-2.2,2.6-3.6,3.4c-31,16.5-57.6,38.5-80.8,64.6c-4.2,4.7-7.6,6.1-12.8,3.6c-4.9-2.3-10-4.3-14.4-7.4
		c-19.5-13.8-32.3-33-42.2-54.3c-12.6-27.3-19.6-56.1-23.8-85.7c-1.5-10.5-2.5-21-3.6-31.4c9.8,3,19.1,6.2,28.6,8.5
		c26.4,6.4,53.4,8.8,80.4,10.3c34,1.8,67.9,1.3,101.8-1.7c12.2-1.1,24.4-2.8,37.4-4.3c-0.8-4.8-1.4-9.1-2-12.6
		c-21.5,1.8-42.4,4.1-63.4,5.2c-35.2,1.9-70.5,1.2-105.6-2.6c-19.5-2.1-38.9-4.8-57.8-10.7c-5-1.6-9.9-3.8-14.6-6
		c-2-0.9-3.6-2.6-6.4-4.7c4-2.5,7-4.8,10.4-6.3c13.7-6.1,28.3-9,43.1-11.3c55.7-8.5,111.6-8.8,167.6-3.2c20.5,2,40.9,5.1,60.6,11.8
		C349.2,215,355,217.1,359.8,222.4z"/>
	<path d="M288.8,523c-2.6,1.3-4.6,2.3-6.6,3.3c-11.8,5.9-23.5,11.8-35.4,17.6c-9.7,4.8-19.1,3.3-26.9-4.1
		c-19.1-18.2-32.8-40-43.6-63.8c-4-8.8-7.4-18-10.8-27.1c-3.5-9.5-1.6-17.9,5.3-25.4c18.4-19.9,38.7-37.4,61.6-51.9
		c1.9-1.2,3.9-2.3,5.2-3.1c7.4,41.3,22.1,80.6,32.5,121C273.4,502.2,278,514,288.8,523z"/>
	<path d="M329.4,0.8c-0.3,3-0.6,5.9-1,9c-1.3,0-2.4,0-3.5,0c-28.9-0.9-57.3,0.6-84.4,8.2c-14.7,4.2-23.9,11.8-26.8,22.8
		c-2.1,8,1.9,14.9,8.8,21.2c7.5,6.8,17.2,11.7,27.7,15.9c10,4.1,20.5,7.6,30.2,12c9.2,4.2,17.8,9,26.4,13.8c3.4,1.9,6.1,4.5,8.5,7.1
		c8.8,9.4,7.3,19.2-3.9,27.3c-9.5,6.8-21.5,10.5-34.3,12.9c-15.7,3-31.6,5.5-47.4,8.3c-2.6,0.5-5.2,1.1-7.8,1.7
		c-16.8,4.3-24.2,10.8-26.2,23.3c-4.2,0-8.4,0-13.7,0c0.8-3.3,1.1-6.7,2.5-9.9c4.2-9.6,13.2-16.8,26.5-20.3
		c12.2-3.3,25.1-5.4,37.7-7.9c11-2.2,22.2-3.9,33.1-6.2c8-1.7,15.2-4.7,20.8-9.2c5.8-4.6,6.8-9.2,1.8-14.2c-3.9-3.9-8.5-7.7-14-10.4
		c-11.8-5.8-24.2-11-36.7-16c-12.1-4.8-24.1-9.7-34.2-16.4c-9.9-6.7-17.3-14.4-19.2-24.1c-3.2-16.5,10.6-32.9,33.2-39.8
		C258.3,2.3,301.5-1.9,329.4,0.8z"/>
	<path d="M420.1,59.2c-0.6-3.6-1.4-7.7-2.3-12.7c6-0.1,11.7-0.7,17.3-0.3c18.7,1.1,36.5,5.7,52.1,16.5c10.3,7.1,17.8,16.2,18.5,29.4
		c0.5,9.6-2.6,18.2-8.4,25.6c-6.1,7.8-13,14.9-19.6,22.2c-4.8,5.3-10,10.3-14.4,15.9c-11.2,14.3-11.8,28.2-1.3,43.1
		c4.6,6.5,10.5,12,16,17.9c5.8,6.1,12.3,11.7,17.7,18.1c11.2,13.4,13.8,30.8-3.3,50.2c-3.3-2.7-6.6-5.3-10.1-8.2
		c1.6-2.5,3.3-4.8,4.7-7.2c5.8-9.8,5.5-17.3-1.7-26.1c-4.1-5-8.9-9.3-13.4-13.9c-6.5-6.8-13.7-13.1-19.4-20.6
		c-15.9-21-15.4-42.6,1.2-62.9c6.4-7.8,14-14.7,20.8-22.3c4.9-5.5,10-11.1,13.9-17.4c6.8-11,4.9-21-4.9-29.5
		c-11-9.4-24.3-13.8-38.4-16C437.1,59.7,428.9,59.8,420.1,59.2z"/>
	<path d="M535.4,477c10.8-29.5,14.1-59.3,13.3-90.6c23.4,14.1,44.5,28.9,50.6,57.1c2.1,9.9-1.2,17-9.8,22.3
		c-9.6,5.9-20.5,7.9-31.4,9.3C550.9,476,543.6,476.3,535.4,477z"/>
	<path d="M157.7,466.5c11.6,28.9,26.2,55,47.9,78.2c-10.3,3.1-19.6,6.6-29.3,8.6c-8,1.6-16.5,2.3-24.6,1.9
		c-10.6-0.6-16.6-7-18.6-17.7c-2.6-14.2,0.2-27.6,5.9-40.6C143.8,486.1,150.2,476.3,157.7,466.5z"/>
	<path d="M370.9,197.5c-3.2-3.2-6.1-6.3-9.3-9.6c1.3-1.5,2.5-3,3.8-4.5c10.4-12.6,12.1-26.4,5.8-41.4c-4.7-11-12.2-20-20.6-28.3
		c-7.6-7.6-15.6-14.8-22.7-22.8c-3.9-4.4-7.1-9.8-9-15.3c-2.8-8-0.3-15.6,6.5-20.8c13-9.9,27.5-10.5,43.4-6.2
		c-1.9,4.4-3.6,8.3-5.1,11.8c-6.4,0-12.5-0.3-18.5,0.1c-3,0.2-6.1,1.6-8.8,3.1c-4.9,2.6-6.2,6.6-3.3,11.5c1.8,3.2,4.3,6.1,6.9,8.7
		c9.3,9.6,19,18.7,28,28.5c10.5,11.5,18.3,24.6,20.2,40.4C390.1,170.6,383.2,184.9,370.9,197.5z"/>
	<path d="M85.4,376.8c-37.7-2.5-76.8-35.3-84.2-70.4c-5-23.6,6.3-46.9,26.8-55.1c7.2-2.9,14.6-4,22.7-3.2c0.4,3.9,0.8,7.7,1.3,11.7
		c-4.3,0.3-8.5,0.1-12.5,0.9c-15.2,2.8-25.2,14.1-26.7,29.6c-1.3,13.2,2.8,24.9,10.1,35.6c12.3,18.3,29.7,29.5,50.6,35.5
		c3.8,1.1,6.2,2.8,7.6,6.5C82.1,371,83.9,373.8,85.4,376.8z"/>
</g>
</svg>
