<?xml version="1.0" encoding="utf-8"?>
<!-- Generator: Adobe Illustrator 25.0.0, SVG Export Plug-In . SVG Version: 6.00 Build 0)  -->
<svg version="1.1" id="Layer_1" xmlns="http://www.w3.org/2000/svg" xmlns:xlink="http://www.w3.org/1999/xlink" x="0px" y="0px"
	 viewBox="0 0 100 100.3" style="enable-background:new 0 0 100 100.3;" xml:space="preserve">
<g>
	<path d="M50,0c17.8,0,32.2,14.5,32.2,32.2c0,17.9-14.5,32.2-32.5,32.2c-17.5,0-31.9-14.6-31.9-32.3C17.8,14.5,32.3,0,50,0z M50,5
		C35,5,22.7,17.2,22.7,32.2c0,14.9,12.2,27.3,27.1,27.3c15.2,0,27.4-12.2,27.4-27.3C77.3,17.2,65,5,50,5z"/>
	<path d="M50,70.1c7.4,0,14.8-0.1,22.2,0c11.6,0.3,20.1,5.8,25.3,16.2c1.8,3.6,2.5,7.4,2.5,11.3c0,1.5-1,2.6-2.4,2.7
		c-1.4,0-2.4-1-2.5-2.6C94.6,88,90,81,81.2,76.8c-2.8-1.3-5.7-1.8-8.8-1.8c-14.9,0-29.9,0-44.8,0c-11.2,0-21,8.6-22.4,19.7
		c-0.1,1-0.2,2-0.2,3.1c-0.1,1.5-1.1,2.6-2.5,2.6C1,100.3,0,99.2,0,97.6c0.2-7.3,2.7-13.7,7.8-19c5.6-5.8,12.4-8.6,20.5-8.6
		C35.5,70,42.7,70.1,50,70.1z"/>
</g>
</svg>
