<?xml version="1.0" encoding="utf-8"?>
<svg version="1.1" id="Capa_1" xmlns="http://www.w3.org/2000/svg" xmlns:xlink="http://www.w3.org/1999/xlink" x="0px" y="0px"
	 viewBox="0 0 2551.2 2551.2" style="enable-background:new 0 0 2551.2 2551.2;" xml:space="preserve">
<g>
	<path d="M1651.2,1055l-0.5-1.7l-0.5-1.7l-143.8-493c-1.4-5.8-3.4-11.5-5.7-17c35.2-14.1,60.1-48.6,60.1-88.8
		c0-52.9-42.8-95.7-95.7-95.7h-380c-52.9,0-95.7,42.8-95.7,95.7c0,40.2,24.9,74.8,60.1,88.8c-2.3,5.5-4.1,11.2-5.7,17l-143.8,493
		l-0.5,1.7l-0.5,1.7c-27.7,119.4-25.2,215.2-23.2,292.3l0.2,6.3v563.2c0,152.9,124.4,277.3,277.3,277.3H1397
		c152.9,0,277.3-124.4,277.3-277.3v-543.3c0.2-8.3,0.5-17.1,0.8-26.4C1677.4,1276.8,1680.4,1180.8,1651.2,1055z M1610.2,1372.4
		v544.4c0,117.9-95.5,213.3-213.3,213.3h-243.7c-117.9,0-213.3-95.5-213.3-213.3v-563.9c-0.8-30.9-1.8-64.7-0.9-102
		c1.8,0.6,3.7,1.2,5.5,1.8c6.1,2.1,44.5,12.5,45.7,12.8c6.7,1.5,78,17,141.3,5.7c108.8-19.3,204.2-80.7,301.3-129.3
		c74.1-37.1,133.6-33.8,133.6-33.8c7,0.3,27.8,3.5,31.2,4.3C1618.2,1225.2,1611.6,1310.6,1610.2,1372.4z"/>
	<path d="M1275.6,0C571.1,0,0,571.1,0,1275.6s571.1,1275.6,1275.6,1275.6s1275.6-571.1,1275.6-1275.6S1980.1,0,1275.6,0
		z M1275.6,2381.1c-256,0-491.5-87.3-678.9-233.3l220.1-220.1v-360.8l-402.1,402.1c-152.9-189.7-244.7-430.7-244.7-693.3
		c0-610.6,495-1105.5,1105.5-1105.5c262.6,0,503.7,91.7,693.3,244.7l-340.1,340.1l76.9,263.7l0.5,1.9l0.5,1.9
		c1,4.3,1.7,8.4,2.6,12.7l438.3-438.3c146.1,187.4,233.3,422.9,233.3,678.9C2381.1,1886.2,1886.2,2381.1,1275.6,2381.1z"/>
</g>
</svg>
