<?xml version="1.0" encoding="utf-8"?>
<svg version="1.1" id="Layer_1" xmlns="http://www.w3.org/2000/svg" xmlns:xlink="http://www.w3.org/1999/xlink" x="0px" y="0px"
	 viewBox="0 0 600 555.3" style="enable-background:new 0 0 600 555.3;" xml:space="preserve">
<g>
	<g>
		<path d="M330,415.6c-4.8-18.5-14.9-26.4-36.7-29.5c-37.3-5.2-70,6.4-100.3,27c-2.5,1.7-4.9,3.5-7.4,5.2c-0.1,0.1-0.3,0-0.8-0.1
			c-15.8-32.8-41.9-52.6-78.8-59c33-49,77.5-81.1,133.5-96.9c62.7-17.6,123.4-11.4,182.9,17.6c-17.2,5.8-32.1,13.3-44.4,26
			c3.7,3.2,7.2,6.3,11,9.6c12.4-11.6,27-18.8,43.2-22.8c19.7-5,39.5-4.2,59.5-1.4c33.9,4.7,37.1,12.9,67.7-2.8
			c-0.5-1.8-0.9-3.4-1.4-5.4c1-0.5,2.1-1,3.2-1.5c1-0.4,2-0.8,3.2-1.3c0-1.5-0.1-2.9,0-4.3c0.4-4.1,2.6-7.4,6.4-7.9
			c3.1-0.4,7,0.5,9.6,2.2c3.2,2.1,3.9,6,2.5,9.8c-0.3,0.7-0.6,1.5-1,2.2c-2.9,5.9-1.6,9.3,4.5,12c4.5,1.9,7.1,5.7,6.6,9.9
			c-0.5,4.3-2.9,7.4-7.2,8.5c-5.2,1.4-8.8-1.2-11.7-5.7c-2.1,0.6-4.2,1.3-6.5,2c-0.7-1.3-1.4-2.7-2.4-4.6
			c-27.4,11.6-21.9,12.4-31.1,43c-4.2,13.8-8.4,27.6-14,40.8c-11.3,26.3-31.9,39.8-60.6,40.5c-1.1,0-2.2,0.2-3.9,0.3
			c0,2.4,0,4.7,0,7c0,2.2,0,4.4,0,7.3c33.7,0.3,59-13.1,75-42.9c8.4,15,15.5,57.8,13.1,78.9c-49.4,0-98.9,0-148,0
			c2.4-5.5,5.8-10.8,7.2-16.6c4.3-17.4-5.2-35.7-22-43.5c-12.5-5.8-25.7-6.3-39.1-5.2C337.8,414.5,334,415.1,330,415.6z"/>
		<path d="M230.9,478.8c1-0.8,1.9-1.6,2.9-2.3c4.9-4,9.3-9.6,14.9-11.6c5.2-1.8,11.8,0.2,18.2,0.5c0.8-4,1.6-8.5,2.6-13.2
			c-1.2-0.6-2.2-1.1-3.6-1.8c4.2-3.5,8.2-6.7,12.6-10.3c-3.1-3.9-6-7.5-9.2-11.5c-3.4,2.7-6.5,5.3-9.7,7.8
			c-16.7,13.6-33.4,27.2-50.2,40.7c-1.9,1.5-4.8,2.5-7.2,2.6c-16.3,0.2-32.6,0.1-49.5,0.1c0.5-1.4,0.8-2.4,1.3-3.2
			c23.3-38.5,56.1-64.4,100.3-74.8c14.6-3.4,29.3-3.2,43.8,0.4c3.5,0.9,6.9,2.3,10.1,4c5.9,3.2,7.4,7.5,5.6,14
			c-2.8,10.3,0.8,13.9,11.3,11.5c13.5-3.1,27.2-4.7,41-1.9c13.7,2.8,22.1,11.8,22.7,23.9c0.6,12.9-11.9,26-24.7,26
			c-42.5,0-85,0-127.4,0c-1.9,0-3.7,0-5.6,0C231,479.5,231,479.2,230.9,478.8z"/>
		<path d="M72.9,479.9c-19.3,0-38.7-0.1-58,0.1c-3.9,0-5.4-1-6.2-5c-8.3-42.6,17.5-85.3,59.4-98c41.9-12.6,87.2,8.8,103.6,48.9
			c1,2.4,0.9,3.9-1.1,5.8c-13.7,13.2-25.1,28.2-33.5,45.3c-1.3,2.7-3.2,2.9-5.7,2.9C111.9,479.8,92.4,479.9,72.9,479.9z M99.9,458.8
			c0-22.4,0-44.3,0-66.4c-5,0-9.6,0-14.3,0c0,22.3,0,44.2,0,66.4C90.4,458.8,94.9,458.8,99.9,458.8z M40.3,427.6
			c-2.1,4.7-4,8.9-6.1,13.5c10.7,4.9,21,9.5,31.8,14.4c2.1-4.6,4-8.9,6.1-13.5C61.3,437.1,51.1,432.5,40.3,427.6z M119.6,455.5
			c10.7-4.9,21.1-9.6,31.8-14.4c-2.2-4.7-4.1-9-6.2-13.4c-10.9,4.9-21.2,9.6-31.7,14.4C115.6,446.8,117.5,451,119.6,455.5z"/>
	</g>
	<g>
		<path d="M317.6,494.7c111.5,0,161.5,0,272.9,0c7.4,0,9.5,2.1,9.4,9.2c-0.1,6.1-2.2,8.2-8.3,8.3c-2.1,0-4.1,0-6.2,0
			c-220.9,0-354.2,0-575.1,0c-7.8,0-10.1-1.7-10.4-7.3c-0.4-8,1.8-10.3,9.8-10.3C121.1,494.7,206.3,494.7,317.6,494.7z"/>
		<path d="M50,527.3c165.9,0,332.4,0,500,0c-6.2,5.9-11.6,22-17.3,27c-1.1,1-3.3,0.9-5,0.9c-24.1,0-48.2,0-72.3,0
			c-127.9,0-255.9,0-383.8,0.1c-3.8,0-6.7-0.8-9.2-3.7C58.4,546.9,54,531.7,50,527.3z"/>
	</g>
	<g>
		<path d="M314.8,208.3c-2.9,3.5-5.9,7.2-8.8,10.8c-20.2-14.6-35.9-44.2-11.8-73.2c4.7-5.6,9.8-10.8,14.4-16.4
			c9.6-11.8,8.9-20.4-2.5-30.5c-6.2-5.4-13-10.1-19.4-15.4c-9-7.4-15.4-16.3-16.7-28.3c-1-9.1,1.2-17.6,5.2-25.7
			c5-10.2,15.2-22.1,25.3-29.5c3,3.7,6.1,7.4,9,10.8c-4.2,4.4-8.3,8.3-12,12.6c-5.5,6.2-10,13.1-11.9,21.4
			c-1.9,8.2-0.5,15.6,5.4,21.6c4.5,4.6,9.8,8.5,14.7,12.7c5.2,4.4,10.8,8.5,15.3,13.5c11.7,13,12.4,27.9,2.3,42.1
			c-3.5,4.9-7.7,9.3-11.6,13.8c-2.7,3.1-5.6,6.1-8,9.4c-8.8,12.2-8.9,24.8-0.2,37C306.7,199.7,310.7,203.6,314.8,208.3z"/>
		<path d="M215.1,0c3.3,4,6.3,7.6,9.2,11.2c-4.4,4.6-9.1,8.5-12.6,13.3c-4.1,5.7-8.1,11.8-10.6,18.3c-3.6,9.3-1.5,18.3,5.9,25.3
			c5,4.8,10.9,8.7,16.1,13.3c5.4,4.8,11.2,9.5,15.5,15.2c8.3,11.1,8.8,23.3,1.4,35.1c-3.8,6-8.8,11.2-13.2,16.7
			c-3.3,4.1-7,7.8-9.8,12.2c-6.6,10-7,20.7-0.8,30.9c3.6,5.9,8.4,11,13.2,17c-2.5,3.1-5.5,6.9-8.5,10.6
			c-23.3-17.4-34.4-47.7-10.6-74.8c4.8-5.5,9.9-10.7,14.4-16.5c7.9-10.1,7.3-18.3-2-27.3c-3.9-3.9-8.5-7.1-12.8-10.6
			c-3.7-3-7.6-5.7-11.1-8.9c-15.2-14.1-18.3-32.5-8.7-51.5C195.9,18,204.7,8.7,215.1,0z"/>
		<path d="M400.3,207.9c-3.2,3.9-6.1,7.6-9.1,11.2c-22.2-16.2-34.3-45.9-12.2-72.8c4.8-5.9,10.3-11.2,15-17.2
			c9.1-11.2,8.5-19.6-2-29.5c-3.9-3.7-8.4-6.8-12.6-10.1c-3.5-2.8-7.1-5.4-10.3-8.4C354.3,67.6,351,50,359.6,31.4
			c5.8-12.5,15-22.2,26-31.4c3.2,3.8,6.2,7.6,9.2,11.3c-4.4,4.6-9.3,8.6-12.9,13.5c-4.3,6-8.2,12.5-10.7,19.3
			c-3.1,8.4-1.1,16.8,5.5,23.2c4.4,4.3,9.5,7.9,14.1,12c5.8,5.1,12.2,9.8,17.1,15.7c9.6,11.5,10.1,24.8,2.2,37.5
			c-2.6,4.1-5.8,7.9-8.9,11.7c-2.1,2.6-4.5,4.9-6.7,7.4c-16.6,18.2-16,35.2,1.7,52.3C397.3,205.1,398.6,206.3,400.3,207.9z"/>
	</g>
</g>
</svg>
