<?xml version="1.0" encoding="utf-8"?>
<!-- Generator: Adobe Illustrator 25.0.0, SVG Export Plug-In . SVG Version: 6.00 Build 0)  -->
<svg version="1.1" id="Capa_1" xmlns="http://www.w3.org/2000/svg" xmlns:xlink="http://www.w3.org/1999/xlink" x="0px" y="0px"
	 viewBox="0 0 2551.2 2551.2" style="enable-background:new 0 0 2551.2 2551.2;" xml:space="preserve">
<g>
	<path d="M1779.1,673.5c-248.6,0-453.6,186.2-483.3,426.9V964.9c169.8-191.2,163-484.1-20.1-667.3
		c-183.3,183.3-189.9,476-20.3,667.4v135.3c-29.7-240.5-234.7-426.9-483.3-426.9c0,267.8,216.1,485,483.3,487v356.3
		c-29.7-240.7-234.7-426.9-483.3-426.9c0,267.8,216.1,485,483.3,487v356.3c-29.7-240.7-234.7-426.9-483.3-426.9l0,0
		c0,267.7,216.1,485,483.3,487v225c0,22.3,9,35.4,20.3,35.4c11.1,0,20.1-13.1,20.1-35.4v-225c267.3-2,483.3-219.3,483.3-487l0,0
		c-248.6,0-453.6,186.2-483.3,426.9v-356.3c267.3-2,483.3-219.3,483.3-487c-248.6,0-453.6,186.2-483.3,426.9v-356.3
		C1563,1158.4,1779.1,941.2,1779.1,673.5z"/>
	<path d="M1275.6,0C571.1,0,0,571.1,0,1275.6s571.1,1275.6,1275.6,1275.6s1275.6-571.1,1275.6-1275.6S1980.1,0,1275.6,0
		z M1275.6,2381.1c-256,0-491.5-87.3-678.9-233.3l231.4-231.4c-58.4-67.4-101.1-148.5-122.7-238.1l-290.6,290.6
		c-152.9-189.7-244.7-430.7-244.7-693.3c0-610.6,495-1105.5,1105.5-1105.5c262.6,0,503.7,91.7,693.3,244.7l-158.2,158.2
		c16.2-1.5,32.5-2.3,49-2.4c1.4,312.3-103.7,411.7-103.7,411.7l-3.7,9.9l395.4-395.4c146.1,187.4,233.3,422.9,233.3,678.9
		C2381.1,1886.2,1886.2,2381.1,1275.6,2381.1z"/>
</g>
</svg>
