<?xml version="1.0" encoding="utf-8"?>
<!-- Generator: Adobe Illustrator 25.0.0, SVG Export Plug-In . SVG Version: 6.00 Build 0)  -->
<svg version="1.1" id="Layer_1" xmlns="http://www.w3.org/2000/svg" xmlns:xlink="http://www.w3.org/1999/xlink" x="0px" y="0px"
	 viewBox="0 0 300 300" style="enable-background:new 0 0 300 300;" xml:space="preserve">
<g>
	<path d="M262.5,0h-225C16.8,0,0,17.4,0,38.7v222.6C0,282.6,16.8,300,37.5,300h225c20.7,0,37.5-17.4,37.5-38.7V38.7
		C300,17.4,283.2,0,262.5,0z M281.3,261.3c0,10.7-8.4,19.3-18.8,19.3h-225c-10.3,0-18.8-8.7-18.8-19.3V38.7
		c0-10.7,8.4-19.3,18.8-19.3h225c10.3,0,18.8,8.7,18.8,19.3V261.3z M243.8,67.7H84.4c-5.2,0-9.4,4.3-9.4,9.7s4.2,9.7,9.4,9.7h159.4
		c5.2,0,9.4-4.3,9.4-9.7C253.1,72.1,248.9,67.7,243.8,67.7z M243.8,116.1H84.4c-5.2,0-9.4,4.3-9.4,9.7c0,5.3,4.2,9.7,9.4,9.7h159.4
		c5.2,0,9.4-4.3,9.4-9.7C253.1,120.5,248.9,116.1,243.8,116.1z M243.8,164.5H84.4c-5.2,0-9.4,4.3-9.4,9.7s4.2,9.7,9.4,9.7h159.4
		c5.2,0,9.4-4.3,9.4-9.7C253.1,168.8,248.9,164.5,243.8,164.5z M243.8,212.9H84.4c-5.2,0-9.4,4.3-9.4,9.7c0,5.3,4.2,9.7,9.4,9.7
		h159.4c5.2,0,9.4-4.3,9.4-9.7C253.1,217.2,248.9,212.9,243.8,212.9z M46.9,87.1h18.8V67.7H46.9V87.1z M46.9,135.5h18.8v-19.3H46.9
		V135.5z M46.9,183.9h18.8v-19.3H46.9V183.9z M46.9,232.3h18.8v-19.3H46.9V232.3z"/>
</g>
</svg>
