<?xml version="1.0" encoding="utf-8"?>
<svg version="1.1" id="Layer_1" xmlns="http://www.w3.org/2000/svg" xmlns:xlink="http://www.w3.org/1999/xlink"
	 viewBox="0 0 1515.4 1372.2" style="enable-background:new 0 0 1515.4 1372.2;" xml:space="preserve">
<g>
	<path d="M1341.5,958.5c-3.5-3.1-6.3-6.6-9.1-10.1c-2.1-2.9-4.5-6.5-6.5-10.2c-15.1-27.6-10.8-60.4,10.9-83.5l8.4-9l1.4-11.7
		c7.6-63.7-74.8-237.9-282.2-425.6C857.1,220.6,664.7,146,594.3,152.9l-12.9,1.3l-9.9,7.6c-25.5,19.6-61.6,23.5-92,9.9
		c-4.2-1.9-8.2-4-12.1-6.4c-3.1-2-7-4.6-10.4-7.8c-33-29.9-33-78.5,0-108.4C604.6-84.8,934.6,74,1184.2,299.9
		s424.9,524.7,277.1,658.6C1428.2,988.4,1374.5,988.4,1341.5,958.5z"/>
	<path d="M1282.3,960.2l-550.5,196.9L150.9,1365C61.2,1397.1-27.4,1316.8,8,1235.6l229.6-526l217.5-498.4
		c44.5,19.9,99,15.1,138.3-15c47.6-4.7,226.1,54.9,435.6,244.5c209.4,189.6,275.2,351.3,270,394.4
		C1265.5,870.5,1260.3,919.9,1282.3,960.2z M657.7,362.5c-53.4-48.3-139.9-48.3-193.3,0c-53.4,48.3-53.4,126.7,0,175
		c53.4,48.3,139.9,48.3,193.3,0C711.1,489.2,711.1,410.8,657.7,362.5z M246,990.8c-70.9,23.4-107.4,94.5-81.5,158.7
		c25.9,64.2,104.3,97.3,175.2,73.8s107.4-94.5,81.5-158.7C395.4,1000.5,316.9,967.4,246,990.8z M832.5,797
		c-70.9,23.4-107.4,94.5-81.5,158.7c25.9,64.2,104.3,97.3,175.2,73.8c70.9-23.4,107.4-94.5,81.5-158.7S903.5,773.6,832.5,797z
		 M1036.6,571.7c-16.4-13.2-42.1-8.3-51.3,9.7c-12.1,23.7-25.4,53.5-24.4,68.6c1.1,16.3,30.8,40.9,54.9,58.2
		c16,11.5,39.6,7.1,49.2-9.3c14.3-24.6,30.7-57.9,24.5-73.2C1083.6,611.4,1058.2,589,1036.6,571.7z M663.8,810
		c4.4-19.5-13-37.2-34.8-35.5c-28.7,2.2-63.9,6.6-77.9,15c-15.1,9-23.8,44.5-28.5,72c-3.1,18.3,12.9,34.6,33.4,34
		c30.7-1,70.7-4.7,82.3-17.2C649.1,866.7,658,835.5,663.8,810z M618.7,1078c1.5-6.4-4.3-12.2-11.4-11.6c-9.4,0.7-21,2.2-25.6,4.9
		c-4.9,2.9-7.8,14.6-9.3,23.6c-1,6,4.2,11.4,11,11.1c10.1-0.3,23.2-1.5,27-5.6C613.8,1096.6,616.8,1086.3,618.7,1078z M323.6,787.6
		c-8.6-9.3-24.5-8.6-31.9,1.5c-9.8,13.2-20.9,30.1-21.8,39.3c-1,9.9,14.3,27.3,27,39.7c8.5,8.3,23.1,7.6,30.6-1.4
		c11.2-13.6,24.5-32.3,22.3-42.1C347.8,815.6,334.8,799.9,323.6,787.6z M435.1,664.1c10.3-7.7,9.5-22.2-1.7-28.9
		c-14.6-8.8-33.2-18.9-43.4-19.8c-10.9-0.9-30.1,13-43.9,24.5c-9.2,7.7-8.4,20.9,1.6,27.7c15,10.1,35.7,22.2,46.5,20.2
		C404.2,686.1,421.5,674.3,435.1,664.1z"/>
</g>
</svg>
