<?xml version="1.0" encoding="utf-8"?>
<svg version="1.1" id="Layer_1" xmlns="http://www.w3.org/2000/svg" xmlns:xlink="http://www.w3.org/1999/xlink"
	 viewBox="0 0 1515.4 1372.2" style="enable-background:new 0 0 1515.4 1372.2;" xml:space="preserve">
<g id="XMLID_806_">
	<g id="XMLID_624_">
		<g id="XMLID_580_">
			<path id="XMLID_599_" d="M401.2,667.5c0,24.1,9.9,46.9,28.5,66.6c-7.2,6.6-15.3,12.8-24.4,18.5c-4.1-2.1-8.1-4.4-12-6.8
				c-34.4-21.2-54.1-49.7-54.1-78.3s19.7-57.1,54.1-78.3c3.9-2.4,7.8-4.6,12-6.8c9.1,5.6,17.3,11.8,24.4,18.5
				C411.1,620.6,401.2,643.4,401.2,667.5z"/>
			<path id="XMLID_601_" d="M412.1,667.5c0-19.8,9.5-39.7,26.9-57c14.8,17,23.2,36.4,23.2,57c0,20.6-8.4,40.1-23.2,57
				C421.6,707.2,412.1,687.3,412.1,667.5z"/>
			<path id="XMLID_603_" d="M280.6,547.1c-15.6,5.7-30.1,12.6-43.3,20.7c-42.3,26-65.6,61.4-65.6,99.7c0,38.2,23.3,73.6,65.6,99.7
				c13.2,8.1,27.7,15,43.3,20.7c-4.8,0.2-9.6,0.3-14.5,0.3c-13.7,0-27-0.9-39.9-2.5c-15.7-5.9-30.3-13-43.6-21.2
				c-43-26.5-66.7-60.9-66.7-97c0-36.1,23.7-70.5,66.7-97c13.3-8.2,28-15.3,43.6-21.2c12.9-1.6,26.2-2.5,39.9-2.5
				C271,546.8,275.9,546.9,280.6,547.1z"/>
			<path id="XMLID_605_" d="M168.3,562.9C127.4,591.2,105,628,105,667.5s22.4,76.3,63.3,104.6c-58.7-20.9-98.2-59.9-98.2-104.6
				C70.2,622.8,109.7,583.7,168.3,562.9z"/>
			<path id="XMLID_606_" d="M182.7,667.5c0-31.3,21.5-62.5,59-85.6c22.5-13.9,49.3-24.2,78.6-30.5c8.1,1.4,16,3.2,23.7,5.2
				c-13.7,5.1-26.5,11.3-38.1,18.4c-39.1,24.1-60.7,56.9-60.7,92.4c0,35.5,21.5,68.3,60.7,92.4c11.6,7.2,24.4,13.3,38.1,18.4
				c-7.7,2-15.6,3.8-23.7,5.2c-29.3-6.3-56-16.6-78.6-30.5C204.2,730,182.7,698.8,182.7,667.5z"/>
			<path id="XMLID_607_" d="M256.1,667.5c0-28.6,19.7-57.1,54.1-78.3c17.1-10.5,36.8-18.8,58.3-24.7c7.7,2.9,15,6.1,21.9,9.6
				c-0.5,0.3-1,0.6-1.5,0.9c-39.1,24.1-60.7,56.9-60.7,92.4c0,35.5,21.5,68.3,60.7,92.4c0.5,0.3,1,0.6,1.5,0.9
				c-6.9,3.5-14.2,6.7-21.9,9.6c-21.5-5.8-41.2-14.1-58.3-24.7C275.8,724.6,256.1,696.1,256.1,667.5z"/>
		</g>
		<path id="XMLID_829_" d="M43.7,1210.3l1407.4-677.6c25.8-12.4,53.8,7.6,62,44.4v0c8.2,36.8-6.6,75.9-32.8,86.6L52.1,1248.1
			c-7.3,3-15-2.8-17.3-13.1l0,0C32.6,1224.7,36.5,1213.7,43.7,1210.3z"/>
		<g id="XMLID_622_">
			<path id="XMLID_625_" d="M153.8,1171.5c33.1,12.6,71.5,19.8,112.3,19.8c125.1,0,226.5-67.3,226.5-150.3v-44L153.8,1171.5z"/>
			<path id="XMLID_639_" d="M106.4,1147.5l386.3-228.3V685H492c-9.1,77.5-106.7,138.5-225.8,138.5c-119.1,0-216.7-61-225.8-138.5
				h-0.7v356C39.7,1082.6,65.2,1120.3,106.4,1147.5z"/>
		</g>
		<path id="XMLID_623_" d="M8.8,1084.5l1420-953.8c26.1-17.5,56.7-2.9,67.8,32.3h0c11.1,35.2-1.6,77.2-28.2,93.1L20.2,1120.7
			c-7.4,4.4-15.8,0.1-18.9-9.7l0,0C-1.8,1101.2,1.5,1089.4,8.8,1084.5z"/>
	</g>
</g>
</svg>
