<?xml version="1.0" encoding="utf-8"?>
<svg version="1.1" id="Layer_1" xmlns="http://www.w3.org/2000/svg" xmlns:xlink="http://www.w3.org/1999/xlink" x="0px" y="0px"
	 viewBox="0 0 62.8 20.2" style="enable-background:new 0 0 62.8 20.2;" xml:space="preserve">
<g>
	<path d="M0,20.2V0h1.9v20.2H0z"/>
	<path d="M13.3,20.2c-1.5,0-2.8-0.3-3.9-0.9s-2-1.5-2.6-2.6s-0.9-2.3-0.9-3.7c0-1.4,0.3-2.6,0.9-3.7c0.6-1.1,1.4-1.9,2.5-2.6
		c1.1-0.6,2.2-0.9,3.5-0.9c1.3,0,2.5,0.3,3.6,0.9s1.8,1.4,2.4,2.5s0.9,2.3,0.9,3.8c0,0.1,0,0.2,0,0.3c0,0.1,0,0.2,0,0.3H7.3v-1.4
		h11.3l-0.8,0.6c0-1-0.2-1.9-0.7-2.7c-0.4-0.8-1-1.4-1.8-1.9c-0.8-0.4-1.6-0.7-2.6-0.7c-1,0-1.8,0.2-2.6,0.7C9.4,8.5,8.8,9.1,8.3,10
		c-0.4,0.8-0.6,1.7-0.6,2.8V13c0,1.1,0.2,2,0.7,2.8c0.5,0.8,1.1,1.5,2,1.9c0.9,0.5,1.8,0.7,2.9,0.7c0.9,0,1.7-0.2,2.4-0.5
		c0.7-0.3,1.4-0.8,1.9-1.4l1.1,1.2c-0.6,0.8-1.4,1.3-2.4,1.7C15.5,20,14.4,20.2,13.3,20.2z"/>
	<path d="M27.2,20.2c-1.1,0-2-0.2-2.8-0.5c-0.8-0.4-1.4-0.8-1.8-1.5c-0.4-0.6-0.6-1.3-0.6-2.1c0-0.7,0.2-1.4,0.5-2
		c0.4-0.6,0.9-1.1,1.7-1.5c0.8-0.4,1.9-0.6,3.2-0.6h4.9v1.4h-4.8c-1.4,0-2.3,0.2-2.8,0.7c-0.5,0.5-0.8,1.1-0.8,1.8
		c0,0.8,0.3,1.5,0.9,1.9c0.6,0.5,1.5,0.7,2.6,0.7c1.1,0,2-0.2,2.8-0.7s1.4-1.2,1.7-2.1l0.4,1.3c-0.4,0.9-1,1.7-1.9,2.2
		C29.6,19.9,28.5,20.2,27.2,20.2z M32,20v-3.1L32,16.4v-5.2c0-1.2-0.3-2.1-1-2.8c-0.7-0.6-1.7-1-3-1c-0.9,0-1.8,0.2-2.6,0.5
		s-1.5,0.7-2.1,1.2l-0.9-1.4c0.7-0.6,1.6-1.1,2.6-1.4c1-0.3,2.1-0.5,3.2-0.5c1.8,0,3.3,0.5,4.3,1.4s1.5,2.3,1.5,4.1V20H32z"/>
	<path d="M39.1,20.2V6h1.8v3.9l-0.2-0.7c0.4-1.1,1.1-1.9,2-2.5c0.9-0.6,2.1-0.8,3.5-0.8v1.9c-0.1,0-0.1,0-0.2,0c-0.1,0-0.1,0-0.2,0
		c-1.5,0-2.7,0.5-3.5,1.4C41.4,10,41,11.3,41,13v7.2H39.1z"/>
	<path d="M56.9,5.9c1.2,0,2.2,0.2,3,0.7s1.6,1.1,2.1,2s0.7,2,0.7,3.4v8.2h-1.9v-8c0-1.5-0.4-2.6-1.1-3.4C59,8,57.9,7.6,56.6,7.6
		c-1,0-1.9,0.2-2.6,0.6c-0.7,0.4-1.3,1-1.7,1.8c-0.4,0.8-0.6,1.7-0.6,2.8v7.5h-1.9V6h1.8v3.9l-0.3-0.7c0.5-1,1.2-1.8,2.2-2.4
		C54.4,6.2,55.6,5.9,56.9,5.9z"/>
</g>
</svg>
