<?xml version="1.0" encoding="utf-8"?>
<svg version="1.1" id="Layer_1" xmlns="http://www.w3.org/2000/svg" xmlns:xlink="http://www.w3.org/1999/xlink" x="0px" y="0px"
	 viewBox="0 0 77.7 20.2" style="enable-background:new 0 0 77.7 20.2;" xml:space="preserve">
<g>
	<path d="M21.9,7.9c-0.5-1-1.2-1.7-2.2-2.1c-0.9-0.5-2-0.7-3.2-0.7c-1.4,0-2.7,0.3-3.7,0.9c-0.8,0.5-1.5,1.2-2,2V5.2H8.8v15h2v-7.9
		c0-1.1,0.2-2.1,0.6-2.9c0.4-0.8,1-1.4,1.8-1.9c0.8-0.4,1.7-0.6,2.8-0.6c1.4,0,2.5,0.4,3.3,1.2c0.8,0.8,1.2,2,1.2,3.6v8.5h2v-8.7
		C22.7,10,22.4,8.8,21.9,7.9z"/>
	<path d="M40.3,8.6c-0.6-1.2-1.5-2-2.6-2.7c-1.1-0.6-2.3-1-3.8-1c-1.4,0-2.6,0.3-3.8,1c-1.1,0.7-2,1.6-2.6,2.7c-0.6,1.1-1,2.5-1,3.9
		s0.3,2.8,1,4s1.6,2.1,2.8,2.7s2.6,1,4.1,1c1.2,0,2.3-0.2,3.3-0.6c1-0.4,1.8-1,2.5-1.8l-1.1-1.3c-0.6,0.7-1.3,1.2-2,1.5
		c-0.8,0.3-1.6,0.5-2.6,0.5c-1.2,0-2.2-0.2-3.1-0.7c-0.9-0.5-1.6-1.2-2.1-2c-0.4-0.7-0.7-1.6-0.7-2.5h12.6c0-0.1,0-0.2,0-0.3
		s0-0.2,0-0.3C41.3,11,40.9,9.7,40.3,8.6z M29.3,9.4c0.5-0.9,1.1-1.5,1.9-2C32,6.9,32.9,6.7,34,6.7c1,0,2,0.2,2.8,0.7
		c0.8,0.5,1.4,1.1,1.9,2c0.4,0.7,0.6,1.5,0.7,2.3H28.6C28.7,10.8,28.9,10.1,29.3,9.4z"/>
	<polygon points="56.9,20.2 50.9,12.5 56.5,5.2 54.3,5.2 49.8,11.1 45.3,5.2 43,5.2 48.6,12.5 42.7,20.2 45,20.2 49.8,13.9
		54.5,20.2 	"/>
	<path d="M67.4,17.7c-0.6,0.5-1.3,0.8-2.2,0.8c-0.8,0-1.5-0.2-1.9-0.7c-0.4-0.5-0.7-1.2-0.7-2v-9h4.6V5.1h-4.6V0h-2v5.1h-2.7v1.7
		h2.7v9.1c0,1.4,0.4,2.5,1.1,3.2c0.8,0.8,1.8,1.1,3.3,1.1c0.6,0,1.2-0.1,1.7-0.3s1-0.4,1.4-0.8L67.4,17.7z"/>
</g>
</svg>
