<?xml version="1.0" encoding="utf-8"?>
<svg version="1.1" id="Layer_1" xmlns="http://www.w3.org/2000/svg" xmlns:xlink="http://www.w3.org/1999/xlink"
	 viewBox="0 0 100 19.1" style="enable-background:new 0 0 100 19.1;" xml:space="preserve">
<style type="text/css">
</style>
<g>
	<path d="M10.9,0.5c-0.4-0.7-1.4-0.7-1.7,0L6.8,5.3C6.6,5.6,6.4,5.8,6.1,5.8L0.8,6.6C0,6.7-0.3,7.7,0.3,8.2l3.8,3.7
		c0.2,0.2,0.3,0.5,0.3,0.9L3.5,18c-0.1,0.8,0.7,1.4,1.4,1l4.7-2.5c0.3-0.1,0.6-0.1,0.9,0l4.7,2.5c0.7,0.4,1.5-0.2,1.4-1l-0.9-5.2
		c-0.1-0.3,0.1-0.6,0.3-0.9l3.8-3.7c0.6-0.6,0.3-1.5-0.5-1.7l-5.2-0.8c-0.3,0-0.6-0.2-0.7-0.5L10.9,0.5z"/>
	<path d="M30.9,0.5c-0.4-0.7-1.4-0.7-1.7,0l-2.3,4.7c-0.1,0.3-0.4,0.5-0.7,0.5l-5.2,0.8c-0.8,0.1-1.1,1.1-0.5,1.7
		l3.8,3.7c0.2,0.2,0.3,0.5,0.3,0.9L23.5,18c-0.1,0.8,0.7,1.4,1.4,1l4.7-2.5c0.3-0.1,0.6-0.1,0.9,0l4.7,2.5c0.7,0.4,1.5-0.2,1.4-1
		l-0.9-5.2c-0.1-0.3,0.1-0.6,0.3-0.9l3.8-3.7c0.6-0.6,0.3-1.5-0.5-1.7l-5.2-0.8c-0.3,0-0.6-0.2-0.7-0.5L30.9,0.5z"/>
	<path d="M50.9,0.5c-0.4-0.7-1.4-0.7-1.7,0l-2.3,4.7c-0.1,0.3-0.4,0.5-0.7,0.5l-5.2,0.8c-0.8,0.1-1.1,1.1-0.5,1.7
		l3.8,3.7c0.2,0.2,0.3,0.5,0.3,0.9L43.5,18c-0.1,0.8,0.7,1.4,1.4,1l4.7-2.5c0.3-0.1,0.6-0.1,0.9,0l4.7,2.5c0.7,0.4,1.5-0.2,1.4-1
		l-0.9-5.2c-0.1-0.3,0.1-0.6,0.3-0.9l3.8-3.7c0.6-0.6,0.3-1.5-0.5-1.7l-5.2-0.8c-0.3,0-0.6-0.2-0.7-0.5L50.9,0.5z"/>
	<path d="M70.9,0.5c-0.4-0.7-1.4-0.7-1.7,0l-2.3,4.7c-0.1,0.3-0.4,0.5-0.7,0.5l-5.2,0.8c-0.8,0.1-1.1,1.1-0.5,1.7
		l3.8,3.7c0.2,0.2,0.3,0.5,0.3,0.9L63.5,18c-0.1,0.8,0.7,1.4,1.4,1l4.7-2.5c0.3-0.1,0.6-0.1,0.9,0l4.7,2.5c0.7,0.4,1.5-0.2,1.4-1
		l-0.9-5.2c-0.1-0.3,0.1-0.6,0.3-0.9l3.8-3.7c0.6-0.6,0.3-1.5-0.5-1.7l-5.2-0.8c-0.3,0-0.6-0.2-0.7-0.5L70.9,0.5z"/>
	<path d="M90.9,0.5c-0.4-0.7-1.4-0.7-1.7,0l-2.3,4.7c-0.1,0.3-0.4,0.5-0.7,0.5l-5.2,0.8c-0.8,0.1-1.1,1.1-0.5,1.7
		l3.8,3.7c0.2,0.2,0.3,0.5,0.3,0.9L83.5,18c-0.1,0.8,0.7,1.4,1.4,1l4.7-2.5c0.3-0.1,0.6-0.1,0.9,0l4.7,2.5c0.7,0.4,1.5-0.2,1.4-1
		l-0.9-5.2c-0.1-0.3,0.1-0.6,0.3-0.9l3.8-3.7c0.6-0.6,0.3-1.5-0.5-1.7l-5.2-0.8c-0.3,0-0.6-0.2-0.7-0.5L90.9,0.5z"/>
</g>
</svg>
