<?xml version="1.0" encoding="utf-8"?>
<svg version="1.1" id="Layer_1" xmlns="http://www.w3.org/2000/svg" xmlns:xlink="http://www.w3.org/1999/xlink"
	 viewBox="0 0 1515.4 1372.2" style="enable-background:new 0 0 1515.4 1372.2;" xml:space="preserve">
<path d="M397.5,551L397.5,551z M503.2,551.1L503.2,551.1z M1453.9,0c-3.7,0-7.5,0.2-11.3,0.6l-1252,123.8c-10.4,1-18.2,9.5-17.4,19
	c0.7,9,8.8,15.8,18.6,15.8c0.5,0,1.1,0,1.6-0.1l62.3-4.8c-3,6.6-6.1,13.4-9.1,20.4h0l-50.3,2.9c-10.5,0.6-18.6,8.8-18.3,18.3
	c0.3,9.3,8.5,16.5,18.7,16.5c0.3,0,0.5,0,0.8,0l34.8-1.3h0v0c-15,43.1-23,90.4-7.4,140.5c11.1,35.5,33.8,71.3,53.5,102.7
	c21.1,33.5,39.2,62.7,47.7,90c0.7,2.3,1.3,4.5,1.9,6.7l69.5,0.1c-0.4-2.5-0.9-5.1-1.4-7.7c-1.2-5.5-2.6-10.9-4.3-16.3
	c-11.3-36.2-34.3-72.4-54.2-104.1c-20.9-33.3-38.7-62-47-88.6c-17-54.6,5.2-105.7,34.3-169.2c2.5-5.4,3.2-11.1,2.4-16.5l38.1-3h0
	c-26.9,58.6-58.7,128.8-34.8,205.9c11.1,35.5,33.8,71.3,53.5,102.7c21.1,33.5,39.2,62.7,47.7,90v0c0.7,2.3,1.3,4.5,1.9,6.7l69.5,0.1
	c-0.4-2.6-0.9-5.2-1.4-7.8c-1.2-5.5-2.6-10.9-4.3-16.3c-11.3-36.2-34.3-72.4-54.2-104.1v0c-20.9-33.3-38.7-62-47-88.6
	c-17-54.6,5.2-105.7,34.3-169.2c3.7-8.2,3.4-16.9-0.1-24.5l53.7-4.2c-0.9,1.4-1.7,2.8-2.4,4.3c-27.3,59.6-61.7,131.6-37,210.8
	c11.1,35.5,33.8,71.3,53.5,102.7c21.1,33.5,39.2,62.7,47.7,90c0.7,2.3,1.4,4.6,1.9,6.9l69.5,0.1c-0.4-2.6-0.9-5.2-1.4-7.9
	c-1.2-5.5-2.6-10.9-4.3-16.3c-11.3-36.2-34.3-72.4-54.2-104.1c-20.9-33.3-38.7-62-47-88.6c-13.8-44.3-1.8-86.3,18.8-134.5
	l927.4-34.8c33.2-1.2,59.8-16.3,58.7-33.5c-1-16.1-25.5-27.9-55.6-27.9c-2.2,0-4.5,0.1-6.8,0.2L547.2,157v0c1.3-9-1.8-18-8.3-24.7h0
	l910.1-70.7c33.1-2.6,59-18.7,57.1-35.9C1504.5,10.5,1481.9,0,1453.9,0L1453.9,0z M617.4,551.2C617.4,551.2,617.4,551.2,617.4,551.2
	L617.4,551.2z M504.7,576.8L504.7,576.8z M618.9,576.9L618.9,576.9L618.9,576.9z M330.7,576.7L330.7,576.7c0,0,0,0.1,0,0.1l-46.7,0
	l-46.2,0.2v0c-0.7,0.1-1.5,0.2-2.2,0.3h0L34.2,578c-9.7,0-19,3.9-25.5,10.5c-6.5,6.7-9.6,15.6-8.5,24.5
	c26.6,218,53.9,452.3,161.4,575.5c51.9,59.5,121,92.3,197,110.3c83.6,16.6,177.7,18.5,274.1,18.6v0v0c1.7,0,4.5,0,6.1,0
	c95.2,0,188.1-2.1,270.5-18.7l0,0c75.1-18,143.4-50.7,194.9-109.7c107.5-123.2,134.9-357.6,161.6-575.8l0.1-0.6
	c1.1-8.9-2-17.8-8.5-24.5c-6.5-6.7-15.8-10.5-25.6-10.5l-613-0.5h0c0,0,0-0.1,0-0.1l-68.3-0.1h0c0,0,0,0.1,0,0.1l-45.9,0
	c0,0,0-0.1,0-0.1l-68.3-0.1l-37.5,0v0L330.7,576.7z M384.7,1327L384.7,1327c-0.7,2.7-1,5.5-1,8.3c0,20.4,18,36.9,40.2,36.9h418.3
	c22.2,0,40.2-16.5,40.2-36.9c0-2.8-0.3-5.6-1-8.2h0c-6.8,4.1-15,6.6-23.8,6.6l-449,0C399.8,1333.7,391.6,1331.2,384.7,1327
	L384.7,1327z M384.7,1327"/>
</svg>
