<?xml version="1.0" encoding="utf-8"?>
<!-- Generator: Adobe Illustrator 25.0.0, SVG Export Plug-In . SVG Version: 6.00 Build 0)  -->
<svg version="1.1" id="Layer_1" xmlns="http://www.w3.org/2000/svg" xmlns:xlink="http://www.w3.org/1999/xlink" x="0px" y="0px"
	 viewBox="0 0 300 300" style="enable-background:new 0 0 300 300;" xml:space="preserve">
<g>
	<path d="M150,0C67.2,0,0,67.2,0,150c0,82.8,67.2,150,150,150s150-67.2,150-150C300,67.2,232.8,0,150,0z M159.4,280.8v-18.3h-18.8
		v18.3c-64.9-4.6-116.8-56.5-121.4-121.4h18.3v-18.8H19.2C23.8,75.8,75.8,23.8,140.6,19.2v18.3h18.8V19.2
		c64.9,4.6,116.8,56.5,121.4,121.4h-18.3v18.8h18.3C276.2,224.3,224.3,276.2,159.4,280.8z M219,110.2c1.3,2.2,0.5,5.1-1.7,6.4
		l-49.5,28.6c0.4,1.6,1,3.1,1,4.9c0,10.4-8.4,18.7-18.8,18.7c-10.4,0-18.8-8.4-18.8-18.7l-50.9-29.4c-4.5-2.6-6-8.3-3.4-12.8
		c2.6-4.5,8.3-6,12.8-3.4l51.2,29.6c2.7-1.5,5.7-2.7,9.1-2.7c5.2,0,9.9,2.2,13.4,5.6l49.2-28.5C214.8,107.1,217.7,107.9,219,110.2z"
		/>
</g>
</svg>
