<?xml version="1.0" encoding="utf-8"?>
<!-- Generator: Adobe Illustrator 25.0.0, SVG Export Plug-In . SVG Version: 6.00 Build 0)  -->
<svg version="1.1" id="Layer_1" xmlns="http://www.w3.org/2000/svg" xmlns:xlink="http://www.w3.org/1999/xlink" x="0px" y="0px"
	 viewBox="0 0 50 50" style="enable-background:new 0 0 50 50;" xml:space="preserve">
<path d="M0,42.6v-5.3c0-1.3,0.3-2.5,1-3.6s1.6-1.9,2.8-2.4c2.8-1.2,5.2-2.1,7.4-2.6c2.2-0.5,4.5-0.8,6.8-0.8s4.6,0.3,6.8,0.8
	c2.2,0.5,4.7,1.4,7.4,2.6c1.2,0.5,2.2,1.3,2.9,2.4c0.7,1.1,1,2.3,1,3.6v5.3H0z M39.6,42.6v-5.3c0-2.4-0.6-4.3-1.8-5.9
	c-1.2-1.5-2.8-2.8-4.8-3.7c2.6,0.3,5.1,0.7,7.4,1.3c2.3,0.6,4.2,1.3,5.6,2c1.2,0.7,2.2,1.6,2.9,2.7c0.7,1.1,1.1,2.2,1.1,3.6v5.3
	H39.6z M18.1,24.4c-2.5,0-4.5-0.8-6.1-2.4c-1.6-1.6-2.4-3.6-2.4-6.1c0-2.5,0.8-4.5,2.4-6.1s3.6-2.4,6.1-2.4s4.5,0.8,6.1,2.4
	c1.6,1.6,2.4,3.6,2.4,6.1s-0.8,4.5-2.4,6.1C22.6,23.6,20.6,24.4,18.1,24.4z M38.5,15.9c0,2.5-0.8,4.5-2.4,6.1
	c-1.6,1.6-3.6,2.4-6.1,2.4c-0.4,0-0.9,0-1.4-0.1c-0.5-0.1-1-0.2-1.4-0.3c0.9-0.9,1.6-2.1,2.1-3.5c0.5-1.4,0.7-2.9,0.7-4.6
	s-0.2-3.2-0.7-4.5c-0.5-1.3-1.2-2.5-2.1-3.6c0.4-0.1,0.9-0.2,1.4-0.3c0.5-0.1,1-0.1,1.4-0.1c2.5,0,4.5,0.8,6.1,2.4
	C37.7,11.4,38.5,13.4,38.5,15.9z M3.4,39.2h29.4v-1.9c0-0.6-0.2-1.2-0.5-1.8c-0.4-0.6-0.8-1-1.3-1.2c-2.7-1.2-5-2-6.8-2.4
	c-1.8-0.4-3.8-0.6-6-0.6s-4.2,0.2-6,0.6c-1.9,0.4-4.2,1.2-6.9,2.4c-0.5,0.2-1,0.6-1.3,1.2c-0.3,0.6-0.5,1.2-0.5,1.8V39.2z M18.1,21
	c1.5,0,2.7-0.5,3.6-1.4c1-1,1.4-2.2,1.4-3.6s-0.5-2.7-1.4-3.6c-1-1-2.2-1.4-3.6-1.4s-2.7,0.5-3.6,1.4S13,14.5,13,15.9
	c0,1.5,0.5,2.7,1.4,3.6C15.4,20.5,16.6,21,18.1,21z"/>
</svg>
