<?xml version="1.0" encoding="utf-8"?>
<!-- Generator: Adobe Illustrator 25.0.0, SVG Export Plug-In . SVG Version: 6.00 Build 0)  -->
<svg version="1.1" id="Capa_1" xmlns="http://www.w3.org/2000/svg" xmlns:xlink="http://www.w3.org/1999/xlink" x="0px" y="0px"
	 viewBox="0 0 2551.2 2551.2" style="enable-background:new 0 0 2551.2 2551.2;" xml:space="preserve">
<g>
	<path d="M1275.6,0C571.1,0,0,571.1,0,1275.6s571.1,1275.6,1275.6,1275.6s1275.6-571.1,1275.6-1275.6S1980.1,0,1275.6,0
		z M1275.6,2381.1c-610.6,0-1105.5-495-1105.5-1105.5S665,170.1,1275.6,170.1s1105.5,495,1105.5,1105.5S1886.2,2381.1,1275.6,2381.1
		z"/>
	<g>
		<path d="M1946.9,716.6c-256.1,210.2-469,173.6-711.5,374.6c-301.4,249.8-233,835.6-209.7,968.6
			c31.6-120.3,98.2-323.2,218.2-483.7c137.9-184.7,309.6-270,375.7-312c66.1-42.2,119.3-103.7,119.3-103.7s-40.8,82.5-145,152.4
			c-90.9,61.1-245,131.7-381.4,386.2c-76.7,143.4-121.4,290.7-140,377.8c42.8-31.6,94.2-66,173.7-124.9
			c359.1-266,667-196.1,809-712.5c70.4-255.7,10.2-621.5,10.2-621.5S2032.9,646,1946.9,716.6z"/>
		<path d="M635.5,583.5c-24.3,233.8-150,321.6-172,544.1c-27.3,276.5,299.6,537.9,377.6,593.4
			c-44.1-76.5-111.8-212-131.4-352.8c-22.5-162,21.4-290.7,33.8-345c12.3-54.2,8.4-111.9,8.4-111.9s20.6,61.9,2.9,149.3
			c-15.4,76.3-57.9,188.8,0.4,385.2c32.8,110.6,83.8,207.3,117.9,260.4c5.9-37.3,14.6-80.3,25.3-149.7
			c48.4-313.4,238.6-431.9,52.5-763.4c-92.2-164.2-305-318.7-305-318.7S643.6,504.9,635.5,583.5z"/>
	</g>
</g>
</svg>
