<?xml version="1.0" encoding="utf-8"?>
<!-- Generator: Adobe Illustrator 25.0.0, SVG Export Plug-In . SVG Version: 6.00 Build 0)  -->
<svg version="1.1" id="Layer_1" xmlns="http://www.w3.org/2000/svg" xmlns:xlink="http://www.w3.org/1999/xlink" x="0px" y="0px"
	 viewBox="0 0 50 50" style="enable-background:new 0 0 50 50;" xml:space="preserve">
<path d="M9,44.2c-0.9,0-1.6-0.3-2.2-1c-0.6-0.6-1-1.4-1-2.2V9c0-0.9,0.3-1.6,1-2.2c0.6-0.6,1.4-1,2.2-1h21.6L27.4,9H9v32h32V22.4
	l3.2-3.2V41c0,0.9-0.3,1.6-1,2.2c-0.6,0.6-1.4,1-2.2,1H9z M34.7,6.2L37,8.5L21.8,23.6v4.6h4.5L41.6,13l2.2,2.2L27.6,31.4h-9.1v-9.1
	L34.7,6.2z M43.8,15.2l-9.1-9L40,0.9C40.6,0.3,41.4,0,42.3,0s1.7,0.3,2.3,1L49,5.5C49.7,6.1,50,6.9,50,7.8c0,0.9-0.3,1.6-1,2.2
	L43.8,15.2z"/>
</svg>
