<?xml version="1.0" encoding="utf-8"?>
<svg version="1.1" id="Layer_1" xmlns="http://www.w3.org/2000/svg" xmlns:xlink="http://www.w3.org/1999/xlink"
	 viewBox="0 0 1515.4 1372.2" style="enable-background:new 0 0 1515.4 1372.2;" xml:space="preserve">
<g>
	<path d="M16.7,840.3c0,41.4,37.8,74.9,84.4,74.9h532.1L358,768.9H75.7C41.5,778.4,16.7,806.8,16.7,840.3z"/>
	<path d="M1509.2,840.3c0-33.5-24.8-61.9-59-71.5h-282L893.1,915.2h531.8C1471.4,915.2,1509.2,881.7,1509.2,840.3z"/>
	<path d="M1092.4,768.9H433.9C537.5,824,748.8,936.4,763.1,944.1C777.4,936.4,988.8,824,1092.4,768.9z"/>
	<path d="M1396,984.2c-213.3-0.2-426.5-0.1-639.7-0.1c-215.2,0-430.4,0.7-645.6-0.5c-55-0.3-76.3,16.9-75.7,63.9
		c2.4,174.9,176.8,323.7,384.9,324.3c223,0.6,446.1,0.3,669,0c208.4-0.3,381.3-140.9,388.7-315.3
		C1480.3,994.5,1469.4,984.4,1396,984.2z"/>
	<path d="M1430.9,549.6c-223.1-0.2-446.1-0.1-669.1-0.1c-227-0.1-453.9-0.3-680.8,0.1c-58.9,0.1-81.8,26.9-81,91.8
		C0.8,704.1,26.5,734,83.3,734c450,0.3,900,0.3,1349.9-0.3c53.6-0.1,82.4-34.9,82.2-94.9C1515.2,577.5,1489.4,549.7,1430.9,549.6z"
		/>
	<path d="M1477.9,439.7c-1.4-31.8,0.7-63.7-0.4-95.4C1471.3,152.8,1299.2,0.9,1087,0.4C867.6-0.3,648.3,0.7,428.9,0
		C319.2-0.4,227.5,35.8,150.8,105.5C73.8,175.4,36.9,260.7,36.1,358.1c-1.2,158.3-15.7,144,155.4,144c188-0.2,376-0.1,564-0.1
		c217.3,0.1,434.7-0.7,652.1,0.6C1458.1,503,1479.9,484.8,1477.9,439.7z M408.3,283.8c0,8.2-6.4,14.8-14.2,14.8h-2.6
		c-7.8,0-14.2-6.6-14.2-14.8v-35.1c0-8.1,6.4-14.8,14.2-14.8h2.6c7.8,0,14.2,6.6,14.2,14.8V283.8z M408.3,122
		c0,8.2-6.4,14.8-14.2,14.8h-2.6c-7.8,0-14.2-6.6-14.2-14.8V87c0-8.1,6.4-14.8,14.2-14.8h2.6c7.8,0,14.2,6.6,14.2,14.8V122z
		 M563.3,186.8c0,8.2-6.3,14.8-14.1,14.8h-2.6c-7.8,0-14.2-6.6-14.2-14.8v-35.1c0-8.1,6.3-14.8,14.2-14.8h2.6
		c7.8,0,14.1,6.6,14.1,14.8V186.8z M780.3,283.8c0,8.2-6.3,14.8-14.2,14.8h-2.6c-7.8,0-14.2-6.6-14.2-14.8v-35.1
		c0-8.1,6.4-14.8,14.2-14.8h2.6c7.8,0,14.2,6.6,14.2,14.8V283.8z M780.3,122c0,8.2-6.3,14.8-14.2,14.8h-2.6
		c-7.8,0-14.2-6.6-14.2-14.8V87c0-8.1,6.4-14.8,14.2-14.8h2.6c7.8,0,14.2,6.6,14.2,14.8V122z M966.3,186.8c0,8.2-6.3,14.8-14.2,14.8
		h-2.6c-7.8,0-14.2-6.6-14.2-14.8v-35.1c0-8.1,6.4-14.8,14.2-14.8h2.6c7.8,0,14.2,6.6,14.2,14.8V186.8z M1121.3,283.8
		c0,8.2-6.4,14.8-14.2,14.8h-2.6c-7.8,0-14.2-6.6-14.2-14.8v-35.1c0-8.1,6.4-14.8,14.2-14.8h2.6c7.8,0,14.2,6.6,14.2,14.8V283.8z
		 M1121.3,122c0,8.2-6.4,14.8-14.2,14.8h-2.6c-7.8,0-14.2-6.6-14.2-14.8V87c0-8.1,6.4-14.8,14.2-14.8h2.6c7.8,0,14.2,6.6,14.2,14.8
		V122z"/>
</g>
</svg>
