<?xml version="1.0" encoding="utf-8"?>
<svg version="1.1" id="Layer_1" xmlns="http://www.w3.org/2000/svg" xmlns:xlink="http://www.w3.org/1999/xlink"
	 viewBox="0 0 50 50" style="enable-background:new 0 0 50 50;" xml:space="preserve">
<g>
	<path d="M48.2,27.3c0.1,1.8-0.2,3.5-0.7,5.1c-1.3,4.8-4.1,8.8-8.3,12c-0.3,0.2-0.5,0.4-0.9,0.2c-0.1-0.1-0.4-0.1-0.6-0.1
		c-8.5,0-16.9,0-25.4,0c-0.1,0-0.3,0-0.4,0c-0.6,0.4-1,0-1.3-0.3C5,39.9,2.1,34.5,1.8,27.9c0-0.1,0-0.3,0-0.4c0-0.1,0-0.1,0-0.2
		C17.2,27.3,32.7,27.3,48.2,27.3z"/>
	<path d="M35,9.2c0.7,0.5,1.2,1,1.8,1.5c0,0.1-0.1,0.2-0.1,0.3c0.4-0.4,0.8-0.8,1.2-1.2c3.1-3,6.3-5.9,9.5-8.9
		c0.1-0.1,0.2-0.2,0.3-0.2c0.4-0.4,1-0.4,1.4,0c0.3,0.3,0.3,0.8-0.1,1.2c-1.2,1.2-2.4,2.3-3.7,3.5c-2.4,2.2-4.7,4.4-7,6.6
		c0.4,0.4,1,0.7,1.1,1.2c0.3,0.9,0.9,1.3,1.8,1.7c1.2,0.5,1.5,1.6,1.4,2.8c0.2,0,0.4,0,0.5,0c1.1,0,1.9,0.5,2.3,1.4
		c0.2,0.3,0.3,0.4,0.7,0.5c1.7,0.1,2.9,0.9,3.5,2.4c0.6,1.5,0.3,2.8-0.8,4c-0.3,0.3-0.6,0.4-1.1,0.4c-15.2,0-30.3,0-45.5,0
		c-0.3,0-0.6,0-1,0.1c-0.1,0-0.2,0-0.3-0.1c-1.4-1-1.5-3.6,0-4.6c0.8-0.5,1.2-1,1.6-1.8c0.6-1.3,1.9-1.7,3.5-1.7
		c-0.4-1.4-0.2-2.7,1-3.6c1.2-1,2.6-1.1,4-0.5c0.1-0.2,0.2-0.4,0.4-0.5c1-1.5,2.9-2.3,4.9-2c0.3,0,0.5,0.1,0.7-0.3
		c1.3-2.2,3.9-2.9,6.4-1.7c0.1,0,0.2,0.1,0.3,0.1c1.7-2.5,4.8-2.1,6.1-0.2c0.9-0.5,1.8-0.7,2.8-0.7c0.2,0,0.4-0.2,0.5-0.4
		c1.7-2.6,3.4-5.2,5.1-7.8C38.7,0.3,39,0.1,39.3,0C39.5,0,40,0.1,40.1,0.3c0.2,0.2,0.2,0.7,0.1,0.9c-0.4,0.7-0.8,1.3-1.3,2
		C37.6,5.3,36.3,7.3,35,9.2z"/>
	<path d="M37.9,45.5c0,0.7,0.1,1.3,0,1.9c-0.2,1.6-1.5,2.6-3.3,2.6c-2.8,0-5.5,0-8.3,0c-3.5,0-7,0-10.5,0c-2.4,0-3.7-1.2-3.7-3.4
		c0-0.4,0-0.7,0-1.1C20.7,45.5,29.3,45.5,37.9,45.5z"/>
</g>
</svg>
