<?xml version="1.0" encoding="utf-8"?>
<!-- Generator: Adobe Illustrator 25.0.0, SVG Export Plug-In . SVG Version: 6.00 Build 0)  -->
<svg version="1.1" id="Layer_1" xmlns="http://www.w3.org/2000/svg" xmlns:xlink="http://www.w3.org/1999/xlink" x="0px" y="0px"
	 viewBox="0 0 450.1 450" style="enable-background:new 0 0 450.1 450;" xml:space="preserve">
<g>
	<g>
		<g>
			<path d="M350.6,268.5l-58.9-69.3l52.3-29.9c5.1-2.9,6.9-9.4,4-14.5c-2.9-5.1-9.4-6.9-14.5-4c-4.4,2.5-103.5,59.1-108.4,61.8
				c-4.9-2.8-104.1-59.4-108.4-61.8c-5.1-2.9-11.6-1.1-14.5,4c-2.9,5.1-1.1,11.6,4,14.5l52.3,29.9l-58.9,69.3
				c-3.8,4.5-3.3,11.2,1.2,15c4.5,3.8,11.2,3.3,15-1.2l61.5-72.3l42.5,24.3c3.3,1.9,7.3,1.9,10.6,0l42.5-24.3l61.5,72.3
				c3.8,4.5,10.5,5,15,1.2C353.9,279.7,354.4,273,350.6,268.5z"/>
		</g>
	</g>
	<g>
		<g>
			<path d="M375,100.6H75.1c-17.6,0-32,14.3-32,32v184.8c0,17.6,14.3,32,32,32H375c17.6,0,32-14.3,32-32V132.6
				C407,115,392.6,100.6,375,100.6z M385.6,317.4c0,5.9-4.8,10.7-10.7,10.7H75.1c-5.9,0-10.7-4.8-10.7-10.7V132.6
				c0-5.9,4.8-10.7,10.7-10.7H375c5.9,0,10.7,4.8,10.7,10.7V317.4z"/>
		</g>
	</g>
</g>
</svg>
