<?xml version="1.0" encoding="utf-8"?>
<!-- Generator: Adobe Illustrator 25.0.0, SVG Export Plug-In . SVG Version: 6.00 Build 0)  -->
<svg version="1.1" id="Layer_1" xmlns="http://www.w3.org/2000/svg" xmlns:xlink="http://www.w3.org/1999/xlink" x="0px" y="0px"
	 viewBox="0 0 300 300" style="enable-background:new 0 0 300 300;" xml:space="preserve">
<g>
	<path d="M262.5,0h-225C16.8,0,0,17.4,0,38.7v222.6C0,282.6,16.8,300,37.5,300h225c20.7,0,37.5-17.4,37.5-38.7V38.7
		C300,17.4,283.2,0,262.5,0z M281.3,261.3c0,10.7-8.4,19.3-18.8,19.3h-225c-10.3,0-18.8-8.7-18.8-19.3V38.7
		c0-10.7,8.4-19.3,18.8-19.3h225c10.3,0,18.8,8.7,18.8,19.3V261.3z M242.3,67.7H57.7c-6,0-10.8,4.3-10.8,9.7s4.9,9.7,10.8,9.7h184.5
		c6,0,10.8-4.3,10.8-9.7C253.1,72.1,248.3,67.7,242.3,67.7z M242.3,116.1H57.7c-6,0-10.8,4.3-10.8,9.7c0,5.3,4.9,9.7,10.8,9.7h184.5
		c6,0,10.8-4.3,10.8-9.7C253.1,120.5,248.3,116.1,242.3,116.1z M242.3,164.5H57.7c-6,0-10.8,4.3-10.8,9.7s4.9,9.7,10.8,9.7h184.5
		c6,0,10.8-4.3,10.8-9.7C253.1,168.8,248.3,164.5,242.3,164.5z M175,212.9H56.5c-5.3,0-9.7,4.3-9.7,9.7v0c0,5.3,4.3,9.7,9.7,9.7H175
		c5.3,0,9.7-4.3,9.7-9.7v0C184.7,217.2,180.4,212.9,175,212.9z"/>
</g>
</svg>
