<?xml version="1.0" encoding="utf-8"?>
<!-- Generator: Adobe Illustrator 25.0.0, SVG Export Plug-In . SVG Version: 6.00 Build 0)  -->
<svg version="1.1" id="Layer_1" xmlns="http://www.w3.org/2000/svg" xmlns:xlink="http://www.w3.org/1999/xlink" x="0px" y="0px"
	 viewBox="0 0 450.1 450" style="enable-background:new 0 0 450.1 450;" xml:space="preserve">
<g>
	<path d="M300.8,73.4c20.1,0,39.1,8,53.5,22.3c14.4,14.3,22.3,33.4,22.3,53.5v151.6c0,20.1-8,39.1-22.3,53.5
		c-14.3,14.4-33.4,22.3-53.5,22.3H149.3c-20.1,0-39.1-8-53.5-22.3c-14.4-14.3-22.3-33.4-22.3-53.5V149.2c0-20.1,8-39.1,22.3-53.5
		s33.4-22.3,53.5-22.3H300.8 M300.8,43.1H149.3c-58.4,0-106.1,47.8-106.1,106.1v151.6c0,58.4,47.8,106.1,106.1,106.1h151.6
		c58.4,0,106.1-47.8,106.1-106.1V149.2C407,90.8,359.2,43.1,300.8,43.1z"/>
	<path d="M323.6,149.2c-12.6,0-22.7-10.1-22.7-22.7s10.1-22.7,22.7-22.7c12.5,0,22.7,10.1,22.7,22.7S336.1,149.2,323.6,149.2z
		 M225.1,164.4c33.4,0,60.6,27.2,60.6,60.6s-27.2,60.6-60.6,60.6s-60.6-27.2-60.6-60.6S191.6,164.4,225.1,164.4 M225.1,134
		c-50.2,0-91,40.7-91,91s40.7,91,91,91s91-40.7,91-91S275.3,134,225.1,134z"/>
</g>
</svg>
