<?xml version="1.0" encoding="utf-8"?>
<svg version="1.1" id="Layer_1" xmlns="http://www.w3.org/2000/svg" xmlns:xlink="http://www.w3.org/1999/xlink" x="0px" y="0px"
	 viewBox="0 0 600 555.3" style="enable-background:new 0 0 600 555.3;" xml:space="preserve">
<g>
	<path d="M359.5,282.2c0-8.3,0-16.2,0-24.1c0-7.2-1.8-9-9.1-9c-20.2,0-40.4,0-60.6,0c-7.4,0-9.2,1.8-9.2,9.4c0,7.8,0,15.6,0,23.6
		c-1.5,0.1-2.7,0.2-3.9,0.2c-21.9,0-43.9,0.1-65.8,0c-1.7,0-3.8-0.6-5.1-1.6c-23.3-18.8-49.2-24.2-78-15.3c-0.6,0.2-1.2,0.4-2.3,0.6
		c-0.5-7.8-0.9-15.2-1.4-23.8c5.7-0.7,11.4-2.4,16.9-2c19.2,1.3,38.2,1.2,56.7-5c22.4-7.5,33.8-24.1,32.9-47.9
		c-0.4-11.1-2.9-21.8-7-32.2c-1.2-3.1-3.2-5-6.6-4.9c-18.7,0.3-36.7,3.4-53,13.1c-19.3,11.4-28.4,29.4-32.5,50.6
		c-0.6,2.9-0.9,5.8-1.3,8.8c-0.8,6.2-0.8,6.2-7.3,7.3c-1-5.4-1-11.1-3.1-16.1c-4.8-11.4-3.9-23.1-4-34.9c0-15.3,0-45.1,0-60.5
		c0-17.5,11-28.4,28.5-28.4c116.9,0,233.9-0.1,350.8-0.1c18.1,0,28.8,10.8,28.8,28.9c0,40.2,0,94.9,0,135.2
		c0,17.2-11,28.2-28.3,28.2c-43.7,0-87.5,0-131.2,0.1C363.1,282.2,361.5,282.2,359.5,282.2z"/>
	<path d="M222.7,360.5c-1.9,30.3-10.2,61.2-29.8,88.4c-4.3,5.9-9.4,11.5-14.9,16.4c-18.5,16.3-39.3,19.9-62.2,10.4
		c-3.1-1.3-5.7-1.3-8.8,0c-22.5,9.4-43.1,6-61.7-9.7c-11.7-9.9-20.3-22.2-27-35.8C5.3,403.8-1.2,376,0.2,346.7
		c1-21,6.9-40.5,23.3-55C43.8,273.8,67.1,269.2,93,278c2.7,0.9,4.1,2.2,4.3,5.3c0.3,5.1,2,6.8,6.9,7.1c4.8,0.4,9.7,0.5,14.5,0.3
		c5.2-0.2,7.5-2.5,7.2-7.6c-0.2-3.1,1.1-4.2,3.7-5.2c36.8-14.3,77.8,6.8,89.2,45.9C222,335,223,346.3,222.7,360.5z"/>
	<path d="M304.3,421c6.2-20.8,17.8-37,36.1-48.2c16-9.8,33.8-13.8,52.4-14c24.6-0.3,49.3-0.1,73.9-0.1c1.6,0,3.2,0,4.9,0
		c0-4.3,0-8.2,0-12.7c-1.4,0-2.9,0-4.3,0c-23.8,0-47.6-0.2-71.5,0.1c-25.6,0.3-49.7,5.8-70.4,21.8c-16.4,12.7-27.2,29.2-33,49.1
		c-0.8,2.9-1.7,4.5-5.1,4.7c-6.3,0.4-11.4,3.7-15.6,8.4c-0.9,1-2.3,2.1-3.5,2.1c-16.7,0.1-33.4,0.1-50.7,0.1c0.7-1.7,1.2-3,1.7-4.3
		c10.1-23.4,15.7-47.7,15.9-73.2c0.2-21.1-3.9-41.2-16.2-59.5c20.7,0,40.9,0,61.5,0c0,7.7,0,15.3,0,22.9c0,8.3,1.6,9.9,9.9,9.9
		c20.1,0,40.1,0,60.2,0c6.7,0,8.7-2,8.7-8.6c0-8,0-16.1,0-24.6c2,0,3.6,0,5.1,0c43.2,0,86.4-0.1,129.6,0c10.6,0,20.2-2.4,28.5-9.2
		c0.3-0.2,0.7-0.3,1.3-0.5c0,21,0,41.8,0,62.6c-8.5-0.7-16.9-1.4-25.6-2.1c0,4.5,0,8.5,0,12.7c5.5,0.4,11.1,0.6,16.7,1.3
		c34.9,4.3,60.9,20.8,74.2,54.5c0.7,1.7,1.2,3.6,1.8,5.4c0.1,0.4,0,0.8,0,1.5C495.7,420.9,400.3,420.9,304.3,421z"/>
	<path d="M450.7,433.8c52.5,0,87.9,0,140.4-0.1c1.2,0,2.4-0.1,3.6,0c4.7,0.5,6.7,4.4,4.1,8.4c-1.2,1.8-2.7,3.5-4.4,4.6
		c-15.2,10.1-14.8,14.9-33,11.9c-4.2-0.7-8.3-2.3-12.1-4.2c-15.7-7.9-31.3-8.1-47.5-1.4c-24.1,10-48.6,8.2-73.2,1.5
		c-12.4-3.4-25-6.5-37.7-8.7c-16-2.8-31.7-0.2-46.4,6.6c-16.2,7.6-33.2,9.5-50.8,7.9c-9.6-0.9-13.8-4.6-14.9-12.9
		c-1-7.7,4.2-13.8,12.1-13.8c20.3-0.1,40.6,0,61,0C384.8,433.9,417.8,433.9,450.7,433.8z"/>
	<path d="M417.5,485.1c12.3,9.1,21.3,8.8,36.2-1.2c5.3,6.3,12.1,9.6,20.3,9.4c8-0.2,15.4-2.5,21.5-8.3c12.4,7,25.8,8.8,39.7,7.8
		c10.9-0.8,21.2-3.6,30.2-10.1c1.9-1.4,4.3-2.9,5.3-4.9c3-6.3,8.4-6.4,14.6-6.6c-0.7,1.4-1.3,2.7-2,3.9c-13.9,23.9-35.3,52-62,56.4
		c-7.5,1.2-15.2,1.8-22.9,1.8c-33.6,0.2-67.3,0.1-100.9,0.1c-21.1,0-41.2-3.8-59.3-15.3c-11.2-7.2-22-34.4-26.4-44.4
		c3.9-0.5,7.7-0.9,11.5-1.6c3.8-0.6,7.6-1.5,11.4-2.3c10.7,18.9,26.6,22.9,44.7,10.9c4.5,5.6,10.5,8.9,17.8,9.5
		C404.5,490.8,411.2,489,417.5,485.1z"/>
	<path d="M143,228.2c-1.6-27.7,15.6-52.5,41.6-60.4c8.4-2.6,17.4-3.3,26.1-4.7c0.9-0.1,2.7,0.9,3,1.7c3.8,11.8,6,23.7,2.9,36.1
		c-2.5,10-8.9,16.7-18.3,20.6c-12.8,5.4-26.2,6.7-39.9,6.7C153.4,228.2,148.3,228.2,143,228.2z"/>
	<path d="M293.5,262c17.7,0,35.2,0,53.1,0c0,17.7,0,35.3,0,53.1c-17.7,0-35.2,0-53.1,0C293.5,297.5,293.5,279.9,293.5,262z"/>
	<path d="M398.2,77.1c-4.5,0-8.3,0-12.7,0c0-5,0-9.8,0-14.6c0-16.7-11.1-27.9-27.8-28c-25.2-0.1-50.3-0.1-75.5,0
		c-16.4,0.1-27.6,11.5-27.7,27.8c0,4.8,0,9.6,0,14.7c-4.3,0-8.2,0-12.4,0c-1-16.1-1.4-31.8,11.5-44.1c7.3-7,16-11,26.1-11
		c26.8-0.1,53.6-0.3,80.3,0c21.4,0.3,38,17.6,38.1,39C398.2,66.2,398.1,71.5,398.2,77.1z"/>
	<path d="M448.8,472.3c-3.9,2.2-6.9,4.4-10.3,5.8c-6.4,2.5-10.2,0.9-13.8-5.1c-2.8-4.7-7.3-5.3-10.9-1.2c-3.8,4.3-8.6,5.8-14.1,5.8
		c-5.6,0.1-9.5-2.5-11.8-7.6c-3.2-6.9-6.9-7.5-12.5-2.2c-5.3,5-11.3,8.4-18.9,6.4c-4.5-1.2-8.1-3.6-9.1-9c7.4-3.9,15.3-6.2,23.6-7.2
		c14.9-1.8,29.1,1.9,43.3,5.5c10.7,2.8,21.4,5.1,32.2,7.6C446.9,471.4,447.3,471.7,448.8,472.3z"/>
	<path d="M495.9,468.5c11.3-3.3,21.8-9.8,34.2-7.2c3.3,0.7,6.5,1.7,9.6,2.9c6.3,2.4,12.6,5,18.8,7.5
		C546,484.4,506.2,483.3,495.9,468.5z"/>
	<path d="M107.2,214c4.7,21.1,5.4,42.4,6.1,63.7c-3,1.2-4,0.3-4.3-2.6c-1.7-18.3-5.1-36.4-10.7-54c-0.7-2.1-0.4-3.3,1.5-4.2
		c1.5-0.7,2.9-1.5,4.3-2.1C105,214.5,105.9,214.4,107.2,214z"/>
	<path d="M486,476.4c-8.8,7.1-19.9,5.4-23.6-3.2c6.3-0.5,12.7-1.4,19-1.4C482.9,471.8,484.4,474.8,486,476.4z"/>
</g>
</svg>
