<?xml version="1.0" encoding="utf-8"?>
<svg version="1.1" id="Layer_1" xmlns="http://www.w3.org/2000/svg" xmlns:xlink="http://www.w3.org/1999/xlink"
	 viewBox="0 0 50 50" style="enable-background:new 0 0 50 50;" xml:space="preserve">
<g>
	<path d="M1.6,46.1c0.2-1,0.4-1.9,0.6-2.8c1.3-4.8,4.1-8.4,7.9-11.2c2.9-2.1,6.1-3.5,9.6-4.2c0.8-0.2,1.6-0.3,2.4-0.4
		c0.3,0,0.4-0.2,0.5-0.5c0.4-1.2,1.2-2,2.3-2c1.1,0,2,0.7,2.4,2c0.1,0.3,0.3,0.4,0.5,0.5c2.6,0.3,5,0.9,7.4,2c4,1.8,7.4,4.4,10,8.2
		c1.6,2.5,2.7,5.2,3.1,8.2c0,0.1,0,0.1,0,0.2c0,0,0,0.1,0,0.1C32.8,46.1,17.2,46.1,1.6,46.1z M23.5,29.9c-0.2,0-0.5,0-0.8,0.1
		c-2.5,0.1-4.9,0.7-7.2,1.7c-2.5,1.1-4.7,2.6-6.5,4.9c-1.3,1.8-2.1,3.8-2.2,6.1c0,0.4,0.2,0.7,0.5,0.7c0.3,0,0.5-0.2,0.5-0.6
		c0-0.5,0.1-1.1,0.2-1.6c0.4-2.2,1.6-4,3.2-5.5c2.1-2,4.7-3.3,7.4-4c1.8-0.5,3.6-0.7,5.4-0.7c0.3,0,0.5-0.2,0.5-0.5
		c0-0.3-0.2-0.5-0.5-0.5C23.9,29.9,23.7,29.9,23.5,29.9z"/>
	<path d="M25,50c-7.8,0-15.7,0-23.5,0c-0.7,0-1.2-0.3-1.4-0.9c-0.2-0.6-0.1-1.3,0.3-1.7c0.3-0.3,0.6-0.4,1-0.4c0.2,0,0.3,0,0.5,0
		c15.5,0,31,0,46.5,0c1.1,0,1.8,0.8,1.5,1.9c-0.2,0.6-0.7,1-1.3,1c-0.1,0-0.3,0-0.4,0C40.5,50,32.7,50,25,50z"/>
	<path d="M17.9,8.7c0,0.9-0.2,1.7-0.7,2.4c-0.6,0.9-0.5,1.7,0,2.7c0.9,1.6,0.9,3.2,0,4.8c-0.3,0.4-0.4,0.9-0.5,1.4
		c0,0.7-0.6,1.2-1.3,1.2c-0.7,0-1.2-0.6-1.2-1.4c0-0.8,0.2-1.5,0.7-2.2c0.6-0.9,0.6-1.8,0-2.7c-1-1.6-0.9-3.2,0-4.8
		c0.5-0.9,0.5-1.7,0-2.6c-1-1.6-1-3.2,0-4.8c0.3-0.4,0.4-0.9,0.5-1.4c0-0.7,0.6-1.2,1.3-1.2c0.7,0,1.2,0.6,1.2,1.3
		c0,0.9-0.2,1.6-0.7,2.4c-0.6,0.9-0.5,1.7,0,2.6C17.7,7,17.9,7.8,17.9,8.7z"/>
	<path d="M23.2,19.6c0-0.7,0.2-1.4,0.6-2.1c0.6-0.9,0.6-1.8,0-2.7c-0.9-1.6-0.9-3.2,0-4.7c0.6-0.9,0.6-1.8,0-2.7
		c-0.9-1.6-0.9-3.2,0-4.7c0.3-0.4,0.4-0.9,0.5-1.4c0-0.7,0.6-1.2,1.3-1.2c0.7,0,1.1,0.6,1.1,1.3c0,0.8-0.3,1.6-0.7,2.3
		c-0.6,0.9-0.5,1.7,0,2.6c1,1.6,1,3.3,0,4.9c-0.5,0.9-0.5,1.7,0,2.6c1,1.6,0.9,3.2,0,4.9c-0.2,0.4-0.4,0.8-0.4,1.2
		c-0.1,0.8-0.6,1.3-1.3,1.3C23.6,21,23.1,20.5,23.2,19.6z"/>
	<path d="M35.5,1.5c0,0.8-0.3,1.5-0.7,2.2c-0.5,0.8-0.5,1.6,0,2.5c1,1.6,1,3.3,0,5c-0.5,0.8-0.5,1.6,0,2.5c1,1.7,1,3.3,0,5
		c-0.2,0.4-0.4,0.8-0.4,1.3c0,0.6-0.6,1.1-1.2,1.1c-0.6,0-1.2-0.5-1.2-1.2c0-0.9,0.2-1.7,0.7-2.4c0.6-0.9,0.6-1.7,0-2.7
		c-1-1.6-0.9-3.3,0-4.9c0.5-0.8,0.5-1.6,0-2.5c-1-1.7-1-3.3,0-5C32.9,2.1,33,1.7,33,1.3c0.1-0.9,0.6-1.4,1.4-1.3
		C35.1,0.1,35.6,0.7,35.5,1.5z"/>
</g>
</svg>
