<?xml version="1.0" encoding="utf-8"?>
<svg version="1.1" id="Layer_1" xmlns="http://www.w3.org/2000/svg" xmlns:xlink="http://www.w3.org/1999/xlink" x="0px" y="0px"
	 viewBox="0 0 300 300" style="enable-background:new 0 0 300 300;" xml:space="preserve">
<path d="M150,280.6l-5.3-4.4C31.3,183.9,0.5,151.3,0.5,98.5c0-44,35.2-79.2,79.2-79.2c36.1,0,56.3,20.2,70.4,36.1
	c14.1-15.8,34.3-36.1,70.4-36.1c44,0,79.2,35.2,79.2,79.2c0,52.8-30.8,85.3-144.3,177.7L150,280.6z M79.6,37
	c-34.3,0-61.6,27.3-61.6,61.6c0,44.9,28.1,74.8,131.9,159.2c103.8-84.4,131.9-114.3,131.9-159.2c0-34.3-27.3-61.6-61.6-61.6
	c-30.8,0-47.5,18.5-60.7,33.4L150,81.8l-9.7-11.4C127.1,55.4,110.4,37,79.6,37z"/>
</svg>
