<?xml version="1.0" encoding="utf-8"?>
<svg version="1.1" id="Layer_1" xmlns="http://www.w3.org/2000/svg" xmlns:xlink="http://www.w3.org/1999/xlink"
	 viewBox="0 0 20.1 19.2" style="enable-background:new 0 0 20.1 19.2;" xml:space="preserve">
<path id="star" d="M4.7,19.2c-0.3,0-0.5-0.1-0.7-0.2c-0.4-0.3-0.7-0.8-0.6-1.4l0.9-5c0-0.2-0.1-0.3-0.2-0.4L0.5,8.6
	C0.1,8.3-0.1,7.8,0.1,7.3s0.6-0.9,1.1-1l5-0.8c0.1,0,0.2,0,0.3-0.3l2.3-4.5C9,0.3,9.4,0,10,0s1.1,0.3,1.3,0.7l0,0l2.4,4.5
	c0.1,0.2,0.2,0.2,0.2,0.2l5,0.8c0.6,0.1,1,0.5,1.1,1s0,1-0.4,1.4L16,12.1c-0.1,0.1-0.2,0.3-0.2,0.4l0.9,5c0.1,0.6-0.2,1.1-0.6,1.4
	s-1,0.3-1.4,0l-4.5-2.4c-0.1,0-0.3,0-0.5,0L5.4,19C5.2,19.1,5,19.2,4.7,19.2z"/>
</svg>
