<?xml version="1.0" encoding="utf-8"?>
<!-- Generator: Adobe Illustrator 25.0.0, SVG Export Plug-In . SVG Version: 6.00 Build 0)  -->
<svg version="1.1" id="Layer_1" xmlns="http://www.w3.org/2000/svg" xmlns:xlink="http://www.w3.org/1999/xlink" x="0px" y="0px"
	 viewBox="0 0 2551.2 2551.2" style="enable-background:new 0 0 2551.2 2551.2;" xml:space="preserve">
<!-- <style type="text/css">
	.st0{fill:#A4B0A0;}
</style> -->
<g>
	<path d="M1275.6,0C571.1,0,0,571.1,0,1275.6s571.1,1275.6,1275.6,1275.6s1275.6-571.1,1275.6-1275.6S1980.1,0,1275.6,0
		z M1275.6,2381.1c-610.6,0-1105.5-495-1105.5-1105.5S665,170.1,1275.6,170.1s1105.5,495,1105.5,1105.5S1886.2,2381.1,1275.6,2381.1
		z"/>
	<g transform="matrix(0.1,0,0,-0.1,0,362)">
		<path d="M19315.8-2654.8c-353-92.6-1098.8-260.3-1654.8-370.7c-1416.5-278-1641.6-361.8-2272.6-829.6
			c-895.8-666.4-1522.5-1954.9-1518-3124.3c4.4-445.7,70.6-763.5,145.7-679.6c17.7,22,79.4,150,132.4,282.4
			c269.2,648.7,1050.2,1637.1,1716.6,2171.2c339.8,273.5,1023.8,542.7,1023.8,401.5c0-48.6-233.8-339.8-511.9-631
			c-260.3-278-348.6-392.7-838.4-1103.3c-507.5-745.8-1169.4-2078.4-1615.1-3265.4c-432.4-1151.7-750.2-2069.6-961.9-2758
			c-357.5-1178.2-679.6-2109.3-737-2127c-70.6-26.5-264.8,604.6-670.7,2171.2c-631,2453.5-900.2,3296.3-1544.5,4832
			C9567.9-6639.5,8985.4-5801.1,7802.7-4517c-648.7,710.4-1570.9,1390-2127,1575.4c-361.8,123.5-392.7,61.8-119.2-242.7
			c1288.5-1451.9,2034.3-2528.6,2824.2-4059.9c666.4-1301.7,1125.3-2594.7,1959.2-5560.1c211.8-759,679.6-2691.8,829.6-3442
			c167.7-834.1,353-1650.3,401.5-1778.3c17.7-39.7,83.8-92.6,150-110.3c150-39.7,873.8-39.7,1028.2,0
			c229.5,66.2,273.5,247.1,591.3,2330c211.8,1407.7,392.7,2250.6,754.6,3508.2c613.3,2144.6,1266.5,3715.5,1663.7,3971.5
			c57.4,35.4,339.8,106,635.5,154.4c1147.3,189.7,2069.6,697.2,2722.7,1504.8c436.9,538.4,551.6,935.5,661.9,2259.3
			c57.4,701.6,92.6,900.2,225.1,1319.4c83.8,273.5,141.2,520.7,132.4,551.6C20105.6-2456.2,20035-2465.1,19315.8-2654.8z"/>
	</g>
</g>
</svg>
